<svg id="Layer_1" data-name="Layer 1" xmlns="http://www.w3.org/2000/svg" viewBox="0 0 160 40"><defs><style>.cls-1{fill:#6b27ae;}</style></defs><path class="cls-1" d="M19.21,28.1a.34.34,0,0,1-.28.39h-.1c-.36,0-.9,0-1.61-.06s-1.26-.06-1.61-.06-.92,0-1.65.05-1.28,0-1.64,0-.4-.16-.4-.48c0-.57,0-1.45.11-2.62s.12-2,.12-2.62c0-.35-.1-.54-.31-.59A9.89,9.89,0,0,0,10,22a10.28,10.28,0,0,0-1.84.11c-.21.05-.31.24-.31.59,0,.58,0,1.45.08,2.62S8,27.42,8,28c0,.32-.13.48-.4.48H5.93c-.74,0-1.3-.05-1.67-.05s-.84,0-1.52.05a15,15,0,0,1-1.52,0c-.33,0-.43-.12-.43-.37,0-.94,0-2.36.13-4.25s.13-3.3.13-4.24,0-2.5-.12-4.51S.84,11.59.84,10.58c0-.19.11-.28.31-.28H2.79c.73,0,1.28,0,1.64,0s1,0,1.74-.06,1.34,0,1.73,0c.14,0,.21.08.21.26a26,26,0,0,1-.19,2.64c-.12,1.18-.19,2.07-.19,2.65a.27.27,0,0,0,.24.28,14.35,14.35,0,0,0,2.07.1,12.49,12.49,0,0,0,1.93-.1c.22-.06.32-.22.32-.51a22.87,22.87,0,0,0-.11-2.45,23,23,0,0,1-.11-2.46c0-.28.07-.41.21-.41.36,0,.92,0,1.66,0s1.3.06,1.67.06.91,0,1.63,0,1.27,0,1.62,0,.34.1.34.31c0,1,0,2.5-.13,4.5s-.12,3.5-.12,4.5,0,2.36.13,4.24S19.21,27.16,19.21,28.1Z"/><path class="cls-1" d="M38.19,28.33c0,.1-.12.14-.35.14H36.15c-.69,0-1.31,0-1.68,0s-.9,0-1.61,0-1.25,0-1.6,0a.58.58,0,0,1-.59-.32L30,26.39c-.29-.76-.69-1.79-1.22-3.23-.12-.37-.23-.56-.33-.56s-.12.15-.12.43c0,.59.06,1.47.17,2.64s.18,2,.18,2.6c0,.19-.09.29-.26.29a1.71,1.71,0,0,1-.32,0,27.06,27.06,0,0,0-3.37-.15c-.33,0-.82,0-1.48.05a14.4,14.4,0,0,1-1.49,0c-.33,0-.43-.12-.43-.37,0-1,.06-2.42.16-4.36s.16-3.39.16-4.36c0-2.47-.13-5.34-.37-8.6V10.6c0-.18.06-.27.25-.3h9a9,9,0,0,1,5,1.28,5,5,0,0,1,2.3,4.4,7,7,0,0,1-.55,3,6.07,6.07,0,0,1-2,2.18c-.21.14-.32.29-.32.42s.54,1.25,1.61,3.42S38.19,28.24,38.19,28.33Zm-7.33-11.5c0-1-.72-1.47-2.15-1.47q-.54,0-.54,1.62v1.17c0,.13.17.19.53.19C30.16,18.34,30.86,17.84,30.86,16.83Z"/><path class="cls-1" d="M53.71,23.28a6.7,6.7,0,0,1-.17,1.26c-.16.74-.25,1.16-.26,1.25-.07.6-.21,1.47-.43,2.63q-.06.3-.48.3a2.16,2.16,0,0,1-.36,0,46.3,46.3,0,0,0-6-.31c-.69,0-1.72,0-3.1.05s-2.4,0-3.08,0c-.28,0-.43-.12-.43-.37,0-1,0-2.42.16-4.36s.15-3.39.15-4.36,0-2.82-.14-5.51c0-.69-.07-1.72-.14-3.09V10.6c0-.2.09-.3.32-.3h3c1.31,0,2.37,0,3,0s1.71,0,3.09,0,2.42,0,3.11,0a.79.79,0,0,1,.87.66c0,.17.13.93.26,2.27s.19,2.11.19,2.3-.09.26-.27.26a13.35,13.35,0,0,1-2.11-.14,13.47,13.47,0,0,0-2.12-.14H47.47c-.67.06-1,.24-1,.54s.41.68,1.21.78h1.66a20.69,20.69,0,0,0,2.08-.1,5.59,5.59,0,0,0,1.08-.13c.22,0,.33.12.33.37a8.33,8.33,0,0,1-.11,1.12c-.11.61-.16,1-.17,1.15-.11,1.16-.17,2-.17,2.47,0,.19-.13.29-.4.29.08,0-.3-.05-1.13-.16a26.28,26.28,0,0,0-3.2-.17c-.78,0-1.18.22-1.18.65a.65.65,0,0,0,.16.46c.25.2,1.55.31,3.9.31A9.54,9.54,0,0,0,52,23a7.27,7.27,0,0,1,1.42,0C53.7,23,53.71,23.07,53.71,23.28Z"/><path class="cls-1" d="M71.11,12.88a12.69,12.69,0,0,1-1.22,2.48,16.41,16.41,0,0,1-1.47,2.4.62.62,0,0,1-.36.16,2.67,2.67,0,0,1-.57-.43,5.75,5.75,0,0,0-1.18-.78,4.15,4.15,0,0,0-1.87-.41,2.78,2.78,0,0,0-2.1.9,3.13,3.13,0,0,0,0,4.31,2.79,2.79,0,0,0,2.1.91,4.17,4.17,0,0,0,3.22-1.24q.18-.21.27-.21a11.11,11.11,0,0,1,1.58,2.1A9.8,9.8,0,0,1,71,25.58a1.19,1.19,0,0,1-.3.64,6.69,6.69,0,0,1-2.9,2.07,9.19,9.19,0,0,1-3.51.69,9.35,9.35,0,0,1-6.81-2.78,9.17,9.17,0,0,1-2.8-6.77,9.56,9.56,0,0,1,9.51-9.61h.1a8.87,8.87,0,0,1,6.56,2.53A.79.79,0,0,1,71.11,12.88Z"/><path class="cls-1" d="M86.67,23.28a6,6,0,0,1-.17,1.26c-.15.74-.24,1.16-.26,1.25-.07.6-.21,1.47-.42,2.63q-.07.3-.48.3a2.29,2.29,0,0,1-.37,0,46.3,46.3,0,0,0-6-.31c-.7,0-1.73,0-3.1.05s-2.4,0-3.08,0c-.29,0-.43-.12-.43-.37,0-1,0-2.42.15-4.36s.16-3.39.16-4.36,0-2.82-.14-5.51q0-1-.15-3.09V10.6q0-.3.33-.3h3c1.32,0,2.37,0,3,0s1.72,0,3.1,0,2.42,0,3.11,0a.79.79,0,0,1,.87.66c0,.17.13.93.26,2.27s.19,2.11.19,2.3-.09.26-.27.26a13.35,13.35,0,0,1-2.11-.14c-.71-.08-1.42-.13-2.13-.14H80.44c-.67.06-1,.24-1,.54s.4.68,1.21.78H82.3a20.74,20.74,0,0,0,2.09-.1,4.82,4.82,0,0,0,1.07-.13c.23,0,.34.12.34.37a7,7,0,0,1-.12,1.12,11,11,0,0,0-.16,1.15c-.12,1.16-.17,2-.17,2.47,0,.19-.14.29-.4.29l-1.13-.16a26.28,26.28,0,0,0-3.2-.17c-.79,0-1.18.22-1.18.65a.56.56,0,0,0,.16.46c.25.2,1.55.31,3.89.31q.48,0,1.44-.09h1.42a.28.28,0,0,1,.32.24Z"/><path class="cls-1" d="M104.42,17.46a7.75,7.75,0,0,1-1.8,5.44A6.78,6.78,0,0,1,97.33,25a5,5,0,0,1-.77-.05,3.85,3.85,0,0,0-.77,0c-.46,0-.69.13-.69.4a12.63,12.63,0,0,0,.12,1.51,12.63,12.63,0,0,1,.12,1.5c0,.19-.09.29-.26.29a1.82,1.82,0,0,1-.33,0,27,27,0,0,0-3.36-.15c-.33,0-.83,0-1.49.05a14.2,14.2,0,0,1-1.48,0c-.33,0-.42-.2-.42-.45,0-1,0-2.42.16-4.36s.15-3.39.15-4.36c0-2.47-.12-5.33-.36-8.6V10.6c0-.2.08-.3.31-.3h2.41c1.07,0,1.87,0,2.41,0s1.14,0,2.06,0,1.6,0,2.06,0a7.14,7.14,0,0,1,5.22,2A7,7,0,0,1,104.42,17.46Zm-7,.18a1.64,1.64,0,0,0-1.36-1.89,1.61,1.61,0,0,0-.49,0c-.35,0-.53.63-.53,1.9v1.77c0,.2.13.2.39.2a1.72,1.72,0,0,0,1.95-1.45,1.51,1.51,0,0,0,0-.52Z"/><path class="cls-1" d="M119.13,15.55c0,.17-.09.25-.28.25.21,0-.87-.06-3.24-.19v2.94c0,1.06,0,2.66.13,4.78s.14,3.71.14,4.77a.34.34,0,0,1-.28.39.21.21,0,0,1-.11,0c-.36,0-.91,0-1.66-.06s-1.3-.06-1.67-.06-.88,0-1.59.05-1.24,0-1.6,0-.42-.12-.42-.37c0-1.06,0-2.65.13-4.77s.14-3.72.14-4.78V15.64c-.76,0-1.9.14-3.42.28a.53.53,0,0,1-.21-.11c0-.1.07-.54.22-1.33s.26-1.35.27-1.5a24.72,24.72,0,0,1,.26-2.86c0-.07.09-.1.2-.1h.2a59.1,59.1,0,0,0,6.38.29c.76,0,2.21-.1,4.32-.3l1.7-.16c.26,0,.39.07.39.2a11.71,11.71,0,0,1-.07,1.4,11.39,11.39,0,0,0-.06,1.41,9.52,9.52,0,0,0,.12,1.31A12.71,12.71,0,0,1,119.13,15.55Z"/><path class="cls-1" d="M128,24.73a4.08,4.08,0,0,1-4.06,4.07,3.85,3.85,0,0,1-2.86-1.2,4,4,0,0,1-.07-5.66l.07-.07a3.85,3.85,0,0,1,2.86-1.2,3.93,3.93,0,0,1,2.87,1.2A3.86,3.86,0,0,1,128,24.73Z"/><path class="cls-1" d="M145.69,12.88a12.73,12.73,0,0,1-1.23,2.48,14,14,0,0,1-1.47,2.4.62.62,0,0,1-.36.16,3,3,0,0,1-.57-.43,5.75,5.75,0,0,0-1.18-.78A4.22,4.22,0,0,0,139,16.3a2.81,2.81,0,0,0-2.11.9,3,3,0,0,0-.86,2.14,3.07,3.07,0,0,0,.86,2.17,2.78,2.78,0,0,0,2.11.91,4.11,4.11,0,0,0,3.21-1.24q.18-.21.27-.21a11.11,11.11,0,0,1,1.58,2.1,9.8,9.8,0,0,1,1.44,2.51,1.19,1.19,0,0,1-.3.64,6.69,6.69,0,0,1-2.9,2.07,9.19,9.19,0,0,1-3.51.69A9.31,9.31,0,0,1,132,26.2a9.17,9.17,0,0,1-2.8-6.77,9.56,9.56,0,0,1,9.51-9.61h.1a8.93,8.93,0,0,1,6.57,2.53A.81.81,0,0,1,145.69,12.88Z"/><path class="cls-1" d="M159.68,23c0,.46-.06,1.39-.16,2.79a24.44,24.44,0,0,1-.27,2.7.34.34,0,0,1-.34.3,19.71,19.71,0,0,1-2.28-.11,19.86,19.86,0,0,0-2.29-.11H147.5c-.38,0-.58-.1-.61-.3a26.55,26.55,0,0,0-.32-2.81,10.06,10.06,0,0,1-.31-1.23c0-.07.82-1.34,2.46-3.83s2.46-3.9,2.46-4.25c0-.17-.11-.26-.34-.26h-4.08a.31.31,0,0,1-.35-.26v-.09a6.07,6.07,0,0,1,.16-1.2c.14-.64.22-1,.24-1.21.21-1.65.31-2.59.31-2.83s.12-.28.34-.28a12,12,0,0,1,1.69.19,10.66,10.66,0,0,0,1.69.19h7.93c.21,0,.33.12.38.37a22.58,22.58,0,0,1,.29,3.94,1.5,1.5,0,0,1-.32.83q-1,1.35-2.62,3.77a19.21,19.21,0,0,0-2.17,3.54c0,.08.07.13.23.13,1,0,1.77,0,2.31-.05s1.26-.12,2.25-.25h.35C159.61,22.58,159.68,22.69,159.68,23Z"/></svg>